<?xml version="1.0" encoding="UTF-8"?>
<svg width="196px" height="74px" viewBox="0 0 196 74" version="1.1" xmlns="http://www.w3.org/2000/svg" xmlns:xlink="http://www.w3.org/1999/xlink">
    <title>logohype4</title>
    <defs>
        <linearGradient x1="92.9917355%" y1="-27.2282822%" x2="54.2872461%" y2="100%" id="linearGradient-1">
            <stop stop-color="#E79FF4" offset="0%"></stop>
            <stop stop-color="#0054D7" offset="100%"></stop>
        </linearGradient>
        <radialGradient cx="77.6706559%" cy="96.5269579%" fx="77.6706559%" fy="96.5269579%" r="65.7032282%" gradientTransform="translate(0.776707,0.965270),scale(1.000000,0.927273),rotate(90.000000),translate(-0.776707,-0.965270)" id="radialGradient-2">
            <stop stop-color="#003A86" offset="0%"></stop>
            <stop stop-color="#0752B0" stop-opacity="0" offset="100%"></stop>
        </radialGradient>
        <linearGradient x1="64.0222481%" y1="6.06321802%" x2="30.3448161%" y2="100%" id="linearGradient-3">
            <stop stop-color="#F3AFFF" offset="0%"></stop>
            <stop stop-color="#5F8FFF" offset="100%"></stop>
        </linearGradient>
    </defs>
    <g id="Page-1" stroke="none" stroke-width="1" fill="none" fill-rule="evenodd">
        <g id="Artboard" transform="translate(-139.000000, -270.000000)" fill-rule="nonzero">
            <g id="logohype4" transform="translate(139.000000, 270.000000)">
                <g id="Group-3-Copy-3">
                    <g id="Mask">
                        <g id="path-3-link" fill="url(#linearGradient-1)">
                            <path d="M50.7087622,9.69170024 L37.8006044,55 L8.78333743,55 C3.93243411,55 0,51.0696803 0,46.2213853 C0,43.9915132 0.849035295,41.8452071 2.37473067,40.2182204 L37.8334233,2.40541471 C40.7083648,-0.660394937 45.5256321,-0.816377345 48.5930912,2.05701825 C50.6729232,4.00526933 51.489398,6.95162799 50.7087622,9.69170024 Z" id="path-3"></path>
                        </g>
                        <g id="path-3-link" fill="url(#radialGradient-2)">
                            <path d="M50.7087622,9.69170024 L37.8006044,55 L8.78333743,55 C3.93243411,55 0,51.0696803 0,46.2213853 C0,43.9915132 0.849035295,41.8452071 2.37473067,40.2182204 L37.8334233,2.40541471 C40.7083648,-0.660394937 45.5256321,-0.816377345 48.5930912,2.05701825 C50.6729232,4.00526933 51.489398,6.95162799 50.7087622,9.69170024 Z" id="path-3"></path>
                        </g>
                    </g>
                    <g id="Mask" transform="translate(34.000000, 31.000000)" fill="url(#linearGradient-3)">
                        <path d="M0.2482591,34.90122 L10.367737,0 L24.0291455,0 C29.5358964,0 34,4.3964371 34,9.8197172 C34,12.0733719 33.2128804,14.2584451 31.7707376,16.0082325 L11.4612839,40.6501928 C9.2157134,43.3747987 5.1525943,43.7907271 2.3860534,41.5791947 C0.3799986,39.9755839 -0.461168,37.347974 0.2482591,34.90122 Z" id="path-6"></path>
                    </g>
                </g>
                <path d="M97.744,52 L97.744,40.288 C97.744,37.984 98.248,36.272 99.256,35.152 C100.264,34.032 101.536,33.472 103.072,33.472 C104.448,33.472 105.496,33.968 106.216,34.96 C106.936,35.952 107.296,37.312 107.296,39.04 L107.296,39.04 L107.296,52 L113.872,52 L113.872,37.936 C113.872,36.368 113.664,34.944 113.248,33.664 C112.832,32.384 112.224,31.288 111.424,30.376 C110.624,29.464 109.648,28.752 108.496,28.24 C107.344,27.728 106.048,27.472 104.608,27.472 C103.04,27.472 101.664,27.776 100.48,28.384 C99.296,28.992 98.384,29.776 97.744,30.736 L97.744,30.736 L97.744,16 L91.168,16 L91.168,52 L97.744,52 Z M127.212308,62.032 L142.284308,28 L135.036308,28 L128.652308,43.552 L122.220308,28 L115.020308,28 L125.100308,50.656 L120.060308,62.032 L127.212308,62.032 Z M150.920616,62.032 L150.920616,49.312 C151.464616,50.08 152.344616,50.808 153.560616,51.496 C154.776616,52.184 156.216616,52.528 157.880616,52.528 C159.480616,52.528 160.968616,52.192 162.344616,51.52 C163.720616,50.848 164.912616,49.944 165.920616,48.808 C166.928616,47.672 167.720616,46.344 168.296616,44.824 C168.872616,43.304 169.160616,41.696 169.160616,40 C169.160616,38.304 168.872616,36.696 168.296616,35.176 C167.720616,33.656 166.928616,32.328 165.920616,31.192 C164.912616,30.056 163.720616,29.152 162.344616,28.48 C160.968616,27.808 159.480616,27.472 157.880616,27.472 C156.216616,27.472 154.776616,27.816 153.560616,28.504 C152.344616,29.192 151.464616,29.92 150.920616,30.688 L150.920616,30.688 L150.920616,28 L144.344616,28 L144.344616,62.032 L150.920616,62.032 Z M156.440616,46.528 C154.616616,46.528 153.152616,45.912 152.048616,44.68 C150.944616,43.448 150.392616,41.888 150.392616,40 C150.392616,38.112 150.944616,36.552 152.048616,35.32 C153.152616,34.088 154.616616,33.472 156.440616,33.472 C158.264616,33.472 159.728616,34.088 160.832616,35.32 C161.936616,36.552 162.488616,38.112 162.488616,40 C162.488616,41.888 161.936616,43.448 160.832616,44.68 C159.728616,45.912 158.264616,46.528 156.440616,46.528 Z M184.036924,52.528 C186.564924,52.528 188.772924,52.04 190.660924,51.064 C192.548924,50.088 194.052924,48.784 195.172924,47.152 L195.172924,47.152 L190.276924,43.504 C189.732924,44.336 188.940924,45.048 187.900924,45.64 C186.860924,46.232 185.588924,46.528 184.084924,46.528 C183.284924,46.528 182.524924,46.416 181.804924,46.192 C181.084924,45.968 180.436924,45.648 179.860924,45.232 C179.284924,44.816 178.804924,44.296 178.420924,43.672 C178.036924,43.048 177.796924,42.336 177.700924,41.536 L177.700924,41.536 L195.652924,41.536 C195.716924,41.024 195.748924,40.592 195.748924,40.24 L195.748924,40.24 L195.748924,39.28 C195.748924,37.328 195.428924,35.616 194.788924,34.144 C194.148924,32.672 193.284924,31.44 192.196924,30.448 C191.108924,29.456 189.852924,28.712 188.428924,28.216 C187.004924,27.72 185.508924,27.472 183.940924,27.472 C182.116924,27.472 180.436924,27.792 178.900924,28.432 C177.364924,29.072 176.028924,29.952 174.892924,31.072 C173.756924,32.192 172.876924,33.52 172.252924,35.056 C171.628924,36.592 171.316924,38.24 171.316924,40 C171.316924,41.888 171.644924,43.608 172.300924,45.16 C172.956924,46.712 173.852924,48.032 174.988924,49.12 C176.124924,50.208 177.468924,51.048 179.020924,51.64 C180.572924,52.232 182.244924,52.528 184.036924,52.528 Z M189.172924,37.072 L177.940924,37.072 C178.100924,36.336 178.380924,35.704 178.780924,35.176 C179.180924,34.648 179.644924,34.216 180.172924,33.88 C180.700924,33.544 181.276924,33.296 181.900924,33.136 C182.524924,32.976 183.140924,32.896 183.748924,32.896 C184.964924,32.896 186.100924,33.232 187.156924,33.904 C188.212924,34.576 188.884924,35.632 189.172924,37.072 L189.172924,37.072 Z" id="hype" fill="#173969"></path>
            </g>
        </g>
    </g>
</svg>